<svg xmlns="http://www.w3.org/2000/svg" viewBox="0 0 1295.04 1296"><g id="Layer_2" data-name="Layer 2"><g id="Layer_1-2" data-name="Layer 1"><path d="M530.06,26.75s0,0,0,.06a30.21,30.21,0,0,0-.17,3.18v83.8c0,16.56,13.72,30,30.64,30H793a30.41,30.41,0,0,1,30.44,26.63c0,.72.11,1.43.11,2.16v876.08a28.81,28.81,0,0,0,.23,3.49c1.32,15.36,14.44,27.42,30.48,27.43l109.92.06q30.33,0,60.54-.08,50.07-.12,100.14-.59a18.16,18.16,0,0,0,2-.15c.44,0,.88-.1,1.34-.17h0c6.26-1,13.64-4.27,17.74-8.13,46.52-43.8,93-87.15,138-132.52,3.09-3.11,9-15.15,9-15.21a35.83,35.83,0,0,0,2-11.13V178.07a29.38,29.38,0,0,0-2.3-11.36l-6.5-15.49a30.37,30.37,0,0,0-6.42-9.59c-42.35-42.69-86.25-87.89-130-129.2-7.4-7-20.1-12-30.42-12.1C1092.23.06,678,0,560.34,0a30.28,30.28,0,0,0-29.79,23.72C530.34,24.71,530.18,25.72,530.06,26.75ZM972.74,173.81c0-16.57,13.71-30,30.64-30h44.31a30.67,30.67,0,0,1,21.69,8.8c18.17,18,53.36,44.91,66.94,58.65a32.27,32.27,0,0,1,9.41,22.93c0,4.25,0,608.3,0,612.55a32.31,32.31,0,0,1-9.41,22.94c-16.06,16.24-48.44,46.07-65.1,62.57-3.22,1.94-14.74,4.6-18.21,4.66-13.85.23-35.64.27-49.63.26-16.9,0-30.64-13.45-30.64-30Z"/><path d="M1264.4,1152.31H1037.05c-.45.07-.9.12-1.34.17a18,18,0,0,1-2,.15q-50.07.54-100.15.59-30.21.06-60.54.08l-109.92-.06c-16,0-29.16-12.07-30.48-27.43a28.81,28.81,0,0,1-.23-3.49V246.24c0-.73-.06-1.44-.11-2.16a30.4,30.4,0,0,0-30.44-26.63H469.31c-16.92,0-30.64-13.42-30.64-30V105.28a30.21,30.21,0,0,1,.17-3.18.13.13,0,0,0,0-.06c.12-1,.28-2,.49-3V30c0-16.56-13.71-30-30.64-30H30.64C13.72,0,0,13.43,0,30V1265.93c0,16.56,13.72,30,30.64,30h84.74c16.92,0,30.64-13.43,30.64-30V173.63c0-16.56,13.72-30,30.64-30h85.11c16.93,0,30.65,13.43,30.65,30V1265.82c0,16.56,13.71,30,30.64,30H409c16.92,0,30.64-13.42,30.64-30V383.71c0-16.56,13.72-30,30.64-30h84.88c16.92,0,30.64,13.43,30.64,30V1266c0,16.56,13.72,30,30.64,30h648c30.64,0,30.64-13.43,30.64-30v-83.72C1295,1165.73,1281.33,1152.31,1264.4,1152.31Z"/></g></g></svg>