<svg xmlns="http://www.w3.org/2000/svg" viewBox="0 0 52.83 146.89"><defs><style>.cls-1{fill:#f0ae4e;}</style></defs><g id="Layer_2" data-name="Layer 2"><g id="Layer_1-2" data-name="Layer 1"><path class="cls-1" d="M20.42,50.89a27.44,27.44,0,0,0-5.73,0c-6,.64-7.66,3.16-4.58,8.55,4.55,8,9.53,15.75,14.79,23.28,6.73,9.61,10.41,20.06,10.49,31.78a17,17,0,0,0,.16,2.86A6.47,6.47,0,0,0,36.4,119c.47-.47,1.17-.86,1.36-1.43,1.36-4,2.64-8,3.89-12,.55-1.8.67-3.8,1.54-5.41.67-1.24,2.61-3,3.28-2.79,1.7.66,3.83,2.11,4.27,3.68.6,2.11.08,4.7-.48,7-3.18,13-9.35,24.69-15.95,36.17-2,3.56-5.6,3.74-8,.39a19.4,19.4,0,0,1-2.6-5.74,87.36,87.36,0,0,0-13.78-27c-1.44-1.91-2-3.82.09-5.55s4.37-2.46,6.23.08c3.06,4.18,5.85,8.54,8.82,12.78a8.26,8.26,0,0,0,1.89,1.48,7.16,7.16,0,0,0,.48-2c-1.22-14.44-5.76-27.44-15.31-38.74A65.71,65.71,0,0,1,1.92,62.83C-.19,57.75-1.53,51.51,3.26,46.91A15,15,0,0,1,12,43.1c5.13-.36,10.36.55,15.55.86a33.34,33.34,0,0,0,5.74,0c7.52-.86,10.36-6.2,7.36-13.16C36.91,22.12,30,15.8,24.43,8.51c-.87-1.12-2.58-2.17-2.59-3.26,0-1.71.64-4.13,1.87-4.92s3.94-.21,5,.81c4.43,4.29,8.92,8.64,12.55,13.59C45.82,21,50.37,27.15,52.4,35.05c1.78,6.92-2,16.66-12.1,16.8L33.12,52C33.1,52.14,24.64,51.33,20.42,50.89Z"/></g></g></svg>