<svg xmlns="http://www.w3.org/2000/svg" viewBox="0 0 630.69 582.08"><defs><style>.cls-1{fill:#f0ae4e;}</style></defs><g id="Layer_2" data-name="Layer 2"><g id="Layer_1-2" data-name="Layer 1"><path class="cls-1" d="M370.71,0a5,5,0,0,1,2.78,1.2c20.92,18.08,22.45,73,22.13,95.72-.64,46.24-9.41,96.79-23.46,135.22-26.5,72.5-77.6,137.33-143.87,182.53a385.87,385.87,0,0,1-105.95,50.83A359.09,359.09,0,0,1,4.81,480.85l-.31,0a5,5,0,0,1,.14-10c127.66-9.23,223.14-57,291.89-145.94,70-90.52,92.45-194.86,68.78-319A5,5,0,0,1,370.71,0Z"/><path class="cls-1" d="M525.06,98a5,5,0,0,1,3.73,1.08C556.18,121.32,565.17,214,554.62,279c-10.74,66.1-32.74,124.84-65.4,174.57C455.69,504.61,410,547.62,353.36,581.38a5,5,0,0,1-5.63-8.24c81.43-63.38,132.85-128.59,161.83-205.2,30.37-80.28,34-166.58,11.21-263.81A5,5,0,0,1,523,98.75,4.9,4.9,0,0,1,525.06,98Z"/><path class="cls-1" d="M456.08,38.5a5,5,0,0,1,4.65,3.15c14.15,35.72,16.73,90.14,7,149.31-10.67,65.27-35.4,129.33-69.63,180.36C371.54,411,333.35,449.6,290.62,480.06c-52.54,37.44-110.53,62.6-172.38,74.79a5.52,5.52,0,0,1-1,.1,5,5,0,0,1-1.51-9.77c244-78,353.68-242,335.34-501.33A5,5,0,0,1,455,38.62,5.24,5.24,0,0,1,456.08,38.5Z"/><path class="cls-1" d="M604.92,267.45a5,5,0,0,1,4.44,1.73c20.74,24.45,27,77.11,15.92,134.16-12.34,63.61-43.4,120.54-85.22,156.2a5,5,0,0,1-7-7.1c65.22-74.27,87.32-165.58,67.56-279.17a5,5,0,0,1,4.3-5.82Z"/></g></g></svg>