<svg xmlns="http://www.w3.org/2000/svg" viewBox="0 0 373.28 441.44"><defs><style>.cls-1{fill:#4374ba;}</style></defs><g id="Layer_2" data-name="Layer 2"><g id="Layer_1-2" data-name="Layer 1"><path class="cls-1" d="M182.53,313c14.44,8.1,32.94,6.07,46.35-5.33C247.56,291.83,255.77,270.59,259,247c.19-1.38-1.4-3.68-2.79-4.5a82.23,82.23,0,0,1-33.53-37.27c-4.69-10.22-7.62-21-5.19-32.44,2.54-12,13.52-17.4,24.42-11.76,9,4.63,14.51,12.58,18.88,21.29,7.75,15.46,10.87,32.07,10.66,49.26-.06,4.41,1.61,6.23,5.6,7.19,21.13,5.08,38.79-1.55,53.67-16.36,20.64-20.57,29.48-46.28,30.82-74.83a155.67,155.67,0,0,0-9.69-63.2c-5.74-15.07-12.6-29.71-18.86-44.58q-7.17-17-14-34.21c-.5-1.23-.34-2.72-.65-5.61,2.1,1.76,3.29,2.35,3.87,3.31,20.54,33.82,39.6,68.26,47.66,107.66,6,29.18,4.54,57.61-7.43,85.08-9.51,21.81-23.67,39.73-45.66,50.18-12.87,6.11-26.5,7.32-40.45,4.23-1.6-.36-3.22-.64-5.36-1.06-.92,4.3-1.7,8.49-2.73,12.63-5.26,21.15-14.46,40.11-31.65,54.23-15.51,12.74-33,16.61-52.36,10.39-1.23-.39-2.5-.67-4.07-1.08-1.55,5.51-2.87,10.8-4.54,16-9.21,28.57-22.4,55-44,76.26-19.31,19-42.35,28.13-69.64,21.45-24.16-5.92-41.09-21-51.83-43.26-14-28.95-12.3-58.36-2.09-87.85,3.59-10.38,7.48-20.78,15.44-28.81,2.18-2.2,5.19-3.58,7.82-5.33L33,275.16c-.48,2.25-.65,4.63-1.51,6.73-4.63,11.41-10.32,22.46-14,34.16C9.64,341,8.8,366.15,20,390.62c12.5,27.2,40.71,43.1,68.55,38.14,18.3-3.26,32.1-14.21,43.35-28.34,18.14-22.78,29.86-48.72,36.62-77,.78-3.23-.42-4.68-2.76-6.54-22.6-18-35.49-41.45-38-70.28-.94-10.87,1-21.32,8.82-29.75s18.46-9.21,27.32-2.11c7.91,6.34,12.51,14.89,15.66,24.4C187.69,263.41,186,288,182.53,313Zm-10.84-6.45c2.75-22.06,4-42.79-3-63.15-2.5-7.27-5.39-14.35-11.66-19.35-4.63-3.68-8.93-3.29-12.49,1.36-4,5.22-5.48,11.37-5.29,17.82a80.48,80.48,0,0,0,13.3,42.21C157.59,293.15,163.18,300.26,171.69,306.59ZM260,231.15c-.26-16-2.58-30.13-9.42-43.12a63.41,63.41,0,0,0-10.29-13.89c-1.89-2-6.1-3.82-8.16-3s-3.63,5.1-3.63,7.86a51.27,51.27,0,0,0,2.2,14.64C235.48,209.35,245.31,221.26,260,231.15Z"/></g></g></svg>