<svg xmlns="http://www.w3.org/2000/svg" viewBox="0 0 383.31 451.44"><defs><style>.cls-1{fill:#4374ba;}</style></defs><g id="Layer_2" data-name="Layer 2"><g id="Layer_1-2" data-name="Layer 1"><path class="cls-1" d="M84.38,451.44a78.51,78.51,0,0,1-18.62-2.32C41,443.05,22.42,427.59,10.62,403.18c-13.35-27.62-14.11-57.6-2.32-91.66,3.9-11.28,8.11-22.11,16.62-30.7a29.86,29.86,0,0,1,6.26-4.53c.83-.5,1.61-1,2.33-1.44a5,5,0,0,1,5.59,0L40.8,276a5,5,0,0,1,2.06,5.18c-.14.64-.25,1.28-.35,1.93a26.7,26.7,0,0,1-1.42,5.63c-1.62,4-3.39,8-5.1,11.84a212.9,212.9,0,0,0-8.75,21.92c-8.26,26.36-7.49,49.58,2.34,71,10.09,22,31.21,36.13,53.81,36.13a53.06,53.06,0,0,0,9.33-.83c15-2.68,28.23-11.36,40.31-26.52,16.8-21.11,28.8-46.36,35.67-75,.05-.23.08-.39.09-.49a8.92,8.92,0,0,0-1.11-1c-23.86-19-37.26-43.84-39.83-73.76-1.2-14,2.13-25,10.15-33.59,5.1-5.46,11.59-8.47,18.29-8.47a25.24,25.24,0,0,1,15.81,5.87c7.83,6.27,13.32,14.76,17.29,26.72,8.08,24.38,6.67,49.21,3.58,72.59A34.07,34.07,0,0,0,206.51,318h0a37.4,37.4,0,0,0,24.12-9.05c15.66-13.31,24.67-31.35,28.32-56.73a2.79,2.79,0,0,0-.34-.39,87.33,87.33,0,0,1-35.45-39.44c-3.84-8.38-8.59-21.17-5.54-35.57,2.27-10.74,10.57-18,20.64-18a23.76,23.76,0,0,1,11,2.79c11.1,5.73,17.08,15.57,21.06,23.5,7.66,15.27,11.42,32.62,11.19,51.56a4.25,4.25,0,0,0,.19,1.71h0a5.39,5.39,0,0,0,1.58.55,53.43,53.43,0,0,0,12.56,1.56c13.29,0,25.2-5.43,36.41-16.6,18.35-18.28,27.95-41.67,29.36-71.52a151.19,151.19,0,0,0-9.37-61.18c-3.69-9.7-7.95-19.43-12.07-28.83-2.23-5.1-4.53-10.37-6.73-15.6-4.14-9.81-8.48-20.38-14.08-34.26a13.77,13.77,0,0,1-.8-4.55c0-.67-.08-1.46-.18-2.41A5,5,0,0,1,321,.59,4.94,4.94,0,0,1,323.32,0a5,5,0,0,1,3.22,1.17c.67.57,1.25,1,1.76,1.39a11.21,11.21,0,0,1,3.17,3.16C351.25,38.31,371.28,73.59,379.75,115c6.59,32.19,4.06,61-7.75,88.08-11,25.34-26.77,42.58-48.1,52.71a64.94,64.94,0,0,1-28,6.35,72.17,72.17,0,0,1-15.63-1.76l-.39-.08c-.54,2.62-1.11,5.32-1.77,8-6.21,25-17.11,43.57-33.33,56.89-11.66,9.59-24.39,14.44-37.84,14.44a62.35,62.35,0,0,1-18.27-2.85c0,.13-.07.25-.1.38-1,3.78-2,7.36-3.17,11-10.87,33.72-25.25,58.6-45.27,78.3C123.19,443,104.45,451.44,84.38,451.44Zm71.71-219.83c-1,0-2,1.18-2.54,1.88-3,3.93-4.44,8.85-4.26,14.62a75.89,75.89,0,0,0,12.49,39.64,82.15,82.15,0,0,0,11,13.9c2-19.62,1.67-35.68-3.79-51.59-2.26-6.57-4.73-12.82-10.05-17.06A5.42,5.42,0,0,0,156.09,231.61Zm83.17-50.45a8,8,0,0,0-.72,2.86,46.14,46.14,0,0,0,2,13.19c3.35,11.12,9.47,20.36,19,28.5-1.07-12-3.74-21.66-8.32-30.35a58.21,58.21,0,0,0-9.48-12.77A7.37,7.37,0,0,0,239.26,181.16Z"/></g></g></svg>