<svg xmlns="http://www.w3.org/2000/svg" viewBox="0 0 16.66 46.32"><defs><style>.cls-1{fill:#f26353;}</style></defs><g id="Layer_2" data-name="Layer 2"><g id="Layer_1-2" data-name="Layer 1"><path class="cls-1" d="M6.44,16.05a8.43,8.43,0,0,0-1.81,0c-1.9.2-2.41,1-1.44,2.7,1.43,2.51,3,5,4.66,7.34a17.32,17.32,0,0,1,3.31,10,4.49,4.49,0,0,0,.05.9,1.93,1.93,0,0,0,.27.51c.14-.15.37-.27.43-.45.42-1.26.83-2.53,1.22-3.8a9.38,9.38,0,0,1,.49-1.71c.21-.39.82-1,1-.88A2.32,2.32,0,0,1,16,31.83a4.61,4.61,0,0,1-.15,2.2,44.42,44.42,0,0,1-5,11.41,1.39,1.39,0,0,1-2.53.12,5.83,5.83,0,0,1-.82-1.81,27.77,27.77,0,0,0-4.35-8.51c-.45-.6-.64-1.2,0-1.75s1.38-.77,2,0c1,1.32,1.85,2.69,2.79,4a2.28,2.28,0,0,0,.59.46,2.13,2.13,0,0,0,.15-.64A21,21,0,0,0,3.82,25.15,20.57,20.57,0,0,1,.61,19.81c-.67-1.6-1.09-3.57.42-5a4.75,4.75,0,0,1,2.75-1.2,38.42,38.42,0,0,1,4.9.27,10,10,0,0,0,1.81,0c2.38-.27,3.27-2,2.33-4.15C11.64,7,9.46,5,7.7,2.68c-.27-.35-.81-.68-.81-1A2,2,0,0,1,7.48.1,1.68,1.68,0,0,1,9.05.36a35.55,35.55,0,0,1,4,4.28,18.8,18.8,0,0,1,3.51,6.41,4.11,4.11,0,0,1-3.81,5.3l-2.27,0C10.44,16.44,7.77,16.18,6.44,16.05Z"/></g></g></svg>