<?xml version="1.0" encoding="utf-8"?>
<!-- Generator: Adobe Illustrator 26.0.2, SVG Export Plug-In . SVG Version: 6.00 Build 0)  -->
<svg version="1.1" id="Layer_1" xmlns="http://www.w3.org/2000/svg" xmlns:xlink="http://www.w3.org/1999/xlink" x="0px" y="0px"
	 viewBox="0 0 1295 1296" style="enable-background:new 0 0 1295 1296;" xml:space="preserve">
<style type="text/css">
	.st0{fill:#F0AE4F;}
</style>
<g id="Layer_2_00000083052929046787206930000012428431687519320745_">
	<g>
		<g id="Layer_1-2_00000058568060360669808310000000657556259521537673_">
			<path class="st0" d="M530.1,26.8C530.1,26.8,530.1,26.8,530.1,26.8c-0.1,1.1-0.2,2.2-0.2,3.2v83.8c0,16.6,13.7,30,30.6,30H793
				c15.4-0.1,28.5,11.3,30.4,26.6c0,0.7,0.1,1.4,0.1,2.2v876.1c0,1.2,0.1,2.3,0.2,3.5c1.3,15.4,14.4,27.4,30.5,27.4l109.9,0.1
				c20.2,0,40.4,0,60.5-0.1c33.4-0.1,66.8-0.3,100.1-0.6c0.7,0,1.3-0.1,2-0.2c0.4,0,0.9-0.1,1.3-0.2l0,0c6.3-1,13.6-4.3,17.7-8.1
				c46.5-43.8,93-87.2,138-132.5c3.1-3.1,9-15.2,9-15.2c1.3-3.6,1.9-7.3,2-11.1V178.1c0-3.9-0.8-7.8-2.3-11.4l-6.5-15.5
				c-1.5-3.6-3.7-6.8-6.4-9.6c-42.3-42.7-86.2-87.9-130-129.2c-7.4-7-20.1-12-30.4-12.1C1092.2,0.1,678,0,560.3,0
				c-14.3-0.1-26.7,9.8-29.8,23.7C530.3,24.7,530.2,25.7,530.1,26.8z M972.7,173.8c0-16.6,13.7-30,30.6-30h44.3
				c8.1,0,15.9,3.1,21.7,8.8c18.2,18,53.4,44.9,66.9,58.7c6.1,6.1,9.5,14.3,9.4,22.9c0,4.2,0,608.3,0,612.5c0,8.6-3.3,16.8-9.4,22.9
				c-16.1,16.2-48.4,46.1-65.1,62.6c-3.2,1.9-14.7,4.6-18.2,4.7c-13.8,0.2-35.6,0.3-49.6,0.3c-16.9,0-30.6-13.5-30.6-30L972.7,173.8
				z"/>
			<path class="st0" d="M1264.4,1152.3h-227.3c-0.4,0.1-0.9,0.1-1.3,0.2c-0.7,0.1-1.3,0.1-2,0.2c-33.4,0.4-66.8,0.6-100.2,0.6
				c-20.1,0-40.3,0.1-60.5,0.1l-109.9-0.1c-16,0-29.2-12.1-30.5-27.4c-0.1-1.2-0.2-2.3-0.2-3.5V246.2c0-0.7-0.1-1.4-0.1-2.2
				c-1.9-15.3-15-26.8-30.4-26.6H469.3c-16.9,0-30.6-13.4-30.6-30v-82.2c0-1.1,0.1-2.1,0.2-3.2c0,0,0,0,0-0.1c0.1-1,0.3-2,0.5-3V30
				c0-16.6-13.7-30-30.6-30h-378C13.7,0,0,13.4,0,30v1235.9c0,16.6,13.7,30,30.6,30h84.7c16.9,0,30.6-13.4,30.6-30V173.6
				c0-16.6,13.7-30,30.6-30h85.1c16.9,0,30.6,13.4,30.6,30v1092.2c0,16.6,13.7,30,30.6,30H409c16.9,0,30.6-13.4,30.6-30V383.7
				c0-16.6,13.7-30,30.6-30h84.9c16.9,0,30.6,13.4,30.6,30V1266c0,16.6,13.7,30,30.6,30h648c30.6,0,30.6-13.4,30.6-30v-83.7
				C1295,1165.7,1281.3,1152.3,1264.4,1152.3z"/>
		</g>
	</g>
</g>
</svg>
