<svg xmlns="http://www.w3.org/2000/svg" viewBox="0 0 595.59 584.68"><defs><style>.cls-1{fill:#f0ae4e;}</style></defs><g id="Layer_2" data-name="Layer 2"><g id="Layer_1-2" data-name="Layer 1"><path class="cls-1" d="M273.64,584.68a5,5,0,0,1-2.88-.91c-22.61-15.94-29.54-70.4-31.48-93.07-3.92-46.08-.19-97.25,10-136.88C268.49,279.06,312.94,209.51,374.44,158a385.82,385.82,0,0,1,100.41-61A359,359,0,0,1,590.29,70.08h.31a5,5,0,0,1,.84,9.93C465.32,101.79,375,158.71,315.39,254c-60.68,97-72.77,203-37,324.23a5,5,0,0,1-1.88,5.48A5,5,0,0,1,273.64,584.68Z"/><path class="cls-1" d="M91.51,460.56a5,5,0,0,1-3.58-1.51C63.3,433.8,65.16,340.67,83.18,277.39c18.35-64.4,47-120.18,85.25-165.78C207.68,64.79,258.08,27.38,318.24.44a4.9,4.9,0,0,1,2-.44,5,5,0,0,1,2.59,9.28c-88.24,53.48-146.9,112.26-184.59,185C98.78,270.47,85.11,355.76,96.48,455a5,5,0,0,1-5,5.57Z"/><path class="cls-1" d="M163.57,530.83a5,5,0,0,1-4.65-3.16c-14.15-35.71-16.73-90.13-7-149.3C162.54,313.1,187.27,249,221.5,198,248.11,158.35,286.3,119.73,329,89.27c52.54-37.44,110.53-62.61,172.38-74.79a4.63,4.63,0,0,1,1-.1,5,5,0,0,1,1.52,9.76c-244,78-353.68,242-335.34,501.34a5,5,0,0,1-3.88,5.23A5.24,5.24,0,0,1,163.57,530.83Z"/><path class="cls-1" d="M17.08,333a5,5,0,0,1-4.18-2.27c-17.54-26.85-17.16-79.88.94-135.1C34,134.08,72,81.47,117.89,51.3A5,5,0,0,1,124,59.23C50,124.77,16.65,212.62,22.08,327.78a5,5,0,0,1-3.46,5A5.1,5.1,0,0,1,17.08,333Z"/></g></g></svg>